<svg width="1050" height="179.737" viewBox="0 0 1050 179.737" xmlns="http://www.w3.org/2000/svg">
	<g id="svgGroup" stroke-linecap="round" fill-rule="evenodd" font-size="9pt" stroke="#000" stroke-width="0.25mm" fill="none" style="stroke:#000;stroke-width:0.25mm;fill:none">
		<path d="M 6.592 117.92 L 0 117.627 L 0 83.496 A 1641.351 1641.351 0 0 0 0.585 74.36 Q 0.84 70.184 1.042 66.452 A 938.753 938.753 0 0 0 1.172 64.014 A 145.233 145.233 0 0 1 1.604 57.971 Q 1.883 54.996 2.274 52.378 A 76.343 76.343 0 0 1 2.783 49.365 Q 3.955 43.213 6.592 39.038 A 16.713 16.713 0 0 1 11.188 34.284 A 22.333 22.333 0 0 1 14.502 32.373 Q 24.023 27.686 49.512 27.686 A 95.319 95.319 0 0 1 57.278 27.984 Q 61.076 28.295 64.36 28.931 A 47.751 47.751 0 0 1 68.115 29.81 A 118.61 118.61 0 0 1 72.087 30.987 Q 76.762 32.469 79.395 33.838 A 20.255 20.255 0 0 1 83.336 36.322 Q 87.744 39.942 87.744 45.264 A 22.501 22.501 0 0 1 83.569 58.521 A 37.921 37.921 0 0 1 75.141 67.097 A 44.728 44.728 0 0 1 72.729 68.774 A 63.028 63.028 0 0 1 61.846 74.366 A 74.203 74.203 0 0 1 57.715 75.879 A 151.452 151.452 0 0 1 41.016 80.42 A 156.48 156.48 0 0 1 21.025 83.064 A 134.912 134.912 0 0 1 12.305 83.35 L 11.719 116.162 A 1.18 1.18 0 0 1 11.085 117.181 Q 10.102 117.803 7.592 117.901 A 25.523 25.523 0 0 1 6.592 117.92 Z M 12.158 66.797 Q 12.158 74.121 18.457 74.121 A 35.043 35.043 0 0 0 18.977 74.117 Q 19.883 74.103 21.533 74.048 Q 23.556 73.98 28.374 73.665 A 771.386 771.386 0 0 0 29.224 73.608 A 99.491 99.491 0 0 0 36.348 72.865 A 120.319 120.319 0 0 0 40.869 72.144 A 128.995 128.995 0 0 0 53.247 69.287 A 62.073 62.073 0 0 0 60.201 66.89 A 50.485 50.485 0 0 0 64.453 64.893 A 30.621 30.621 0 0 0 69.649 61.386 Q 72.477 58.981 73.99 56.182 A 14.411 14.411 0 0 0 75.732 49.219 Q 74.006 41.737 64.228 38.506 A 41.487 41.487 0 0 0 58.301 37.061 A 53.506 53.506 0 0 0 54.51 36.46 Q 52.625 36.234 50.939 36.191 A 30.564 30.564 0 0 0 50.171 36.182 Q 46.582 36.182 41.675 36.548 A 42.059 42.059 0 0 0 37.261 37.131 Q 35.052 37.534 32.601 38.18 A 80.414 80.414 0 0 0 30.322 38.818 A 41.556 41.556 0 0 0 24.736 40.891 A 30.142 30.142 0 0 0 19.482 43.945 A 14.979 14.979 0 0 0 17.024 46.171 Q 15.529 47.889 14.956 49.847 A 8.793 8.793 0 0 0 14.648 51.416 A 19.698 19.698 0 0 1 14.457 52.941 Q 14.264 54.126 13.916 55.518 Q 12.495 61.557 12.223 65.203 A 21.519 21.519 0 0 0 12.158 66.797 Z" id="0" vector-effect="non-scaling-stroke"/>
		<path d="M 163.477 116.748 L 154.834 116.748 Q 154.33 113.349 154.043 110.599 A 97.432 97.432 0 0 1 153.955 109.717 A 411.266 411.266 0 0 0 153.662 106.75 A 327.247 327.247 0 0 0 153.369 104.004 A 137.849 137.849 0 0 0 152.779 99.616 Q 152.252 96.149 151.611 93.311 A 51.859 51.859 0 0 1 140.596 105.912 A 43.777 43.777 0 0 1 122.314 114.697 A 46.036 46.036 0 0 1 118.509 115.328 Q 116.453 115.576 114.624 115.576 Q 111.353 115.576 109.14 115.51 A 96.639 96.639 0 0 1 108.911 115.503 A 24.69 24.69 0 0 1 106.552 115.307 Q 105.351 115.152 104.034 114.88 A 40.438 40.438 0 0 1 103.857 114.844 A 18 18 0 0 1 99.025 113.101 A 16.956 16.956 0 0 1 98.73 112.939 A 12.568 12.568 0 0 1 95.872 110.774 A 8.967 8.967 0 0 1 93.311 104.297 A 23.844 23.844 0 0 1 92.853 101.309 A 32.196 32.196 0 0 1 92.725 98.364 A 19.868 19.868 0 0 1 92.868 96.097 Q 93.182 93.375 94.189 89.648 Q 95.454 84.97 98.52 79.636 A 64.838 64.838 0 0 1 99.536 77.93 A 57.368 57.368 0 0 1 108.984 66.357 A 61.958 61.958 0 0 1 120.642 57.428 A 49.058 49.058 0 0 1 134.033 52.002 A 39.406 39.406 0 0 1 137.767 51.35 A 28.866 28.866 0 0 1 141.284 51.123 A 42.503 42.503 0 0 1 144.392 51.231 A 31.027 31.027 0 0 1 147.217 51.563 A 9.842 9.842 0 0 1 155.856 56.37 Q 157.601 59.021 158.643 63.135 A 52.999 52.999 0 0 1 159.683 68.277 Q 160.524 73.673 160.828 81.088 A 189.893 189.893 0 0 1 160.913 83.569 A 1717.553 1717.553 0 0 0 161.096 89.749 Q 161.285 95.735 161.474 100.124 A 433.459 433.459 0 0 0 161.646 103.784 A 75.873 75.873 0 0 0 162.39 111.283 A 59.311 59.311 0 0 0 163.477 116.748 Z M 145.822 62.486 A 12.029 12.029 0 0 0 142.676 62.109 A 14.484 14.484 0 0 0 140.625 61.963 A 25.866 25.866 0 0 0 130.694 64.068 Q 124.555 66.609 118.066 72.217 A 51.195 51.195 0 0 0 108.545 82.764 A 44.064 44.064 0 0 0 105.487 87.75 Q 104.13 90.364 103.43 92.782 A 17.706 17.706 0 0 0 102.686 97.705 A 10.954 10.954 0 0 0 103.517 102.112 Q 105.468 106.593 111.994 107.844 A 22.859 22.859 0 0 0 112.646 107.959 A 32.099 32.099 0 0 0 128.084 103.472 Q 133.056 100.616 137.842 95.947 A 51.026 51.026 0 0 0 146.338 84.814 A 45.795 45.795 0 0 0 148.81 79.965 Q 149.918 77.4 150.471 75.06 A 19.351 19.351 0 0 0 151.025 70.605 Q 151.025 63.898 145.822 62.486 Z" id="1" vector-effect="non-scaling-stroke"/>
		<path d="M 192.48 103.564 L 192.773 80.127 A 51.2 51.2 0 0 0 192.629 76.179 Q 192.472 74.143 192.141 72.379 A 26.491 26.491 0 0 0 191.748 70.605 L 169.043 70.605 L 168.75 60.498 L 190.723 60.498 L 190.723 22.705 Q 191.103 21.563 192.143 20.421 A 10.463 10.463 0 0 1 192.48 20.068 A 13.447 13.447 0 0 1 193.406 19.22 Q 194.358 18.431 195.145 18.16 A 2.39 2.39 0 0 1 195.923 18.018 Q 197.153 18.018 198.097 18.247 A 6.221 6.221 0 0 1 198.34 18.311 Q 199.365 18.604 200.537 20.361 A 61.869 61.869 0 0 1 201.67 26.576 Q 202.881 35.509 202.881 49.512 A 101.963 101.963 0 0 0 203.32 59.033 A 75.513 75.513 0 0 1 212.695 58.447 L 220.313 58.447 A 46.199 46.199 0 0 0 223.305 58.355 A 36.093 36.093 0 0 0 225.439 58.154 L 225 68.701 L 203.613 68.115 L 204.346 118.652 A 17.556 17.556 0 0 1 202.657 119.307 Q 201.069 119.824 199.805 119.824 A 5.588 5.588 0 0 1 194.734 116.6 Q 192.48 112.584 192.48 103.564 Z" id="2" vector-effect="non-scaling-stroke"/>
		<path d="M 288.191 59.78 A 41.252 41.252 0 0 0 287.109 59.766 Q 278.027 59.766 270.264 63.135 A 59.7 59.7 0 0 0 261.826 67.437 Q 257.604 70.065 254.586 73.151 A 27.624 27.624 0 0 0 250.195 78.955 Q 247.852 83.35 247.852 88.33 L 247.852 93.237 A 30.194 30.194 0 0 0 247.995 96.027 Q 248.309 99.394 249.316 104.077 Q 250.781 110.889 250.781 117.92 A 31.44 31.44 0 0 0 248.805 118.073 Q 247.05 118.268 245.801 118.652 A 16.856 16.856 0 0 1 244.561 118.986 Q 243.95 119.124 243.414 119.186 A 7.228 7.228 0 0 1 242.578 119.238 A 2.707 2.707 0 0 1 240.678 118.465 A 3.946 3.946 0 0 1 240.308 118.066 A 5.793 5.793 0 0 1 239.818 117.343 Q 239.079 116.081 238.222 113.637 A 48.644 48.644 0 0 1 238.184 113.525 A 15.602 15.602 0 0 1 238.118 113.083 Q 237.955 111.877 237.598 108.545 Q 237.158 104.443 236.499 98.584 A 3507.042 3507.042 0 0 0 235.803 92.45 A 4538.66 4538.66 0 0 0 235.034 85.767 Q 234.229 78.809 233.496 72.07 A 2923.373 2923.373 0 0 0 232.736 65.231 Q 231.718 56.175 231.073 51.062 A 399.183 399.183 0 0 0 231.006 50.537 A 3.329 3.329 0 0 1 231.455 48.764 Q 232.523 47.021 236.133 47.021 A 5.893 5.893 0 0 1 238.572 47.512 Q 239.824 48.074 240.746 49.279 A 7.319 7.319 0 0 1 240.967 49.585 A 20.808 20.808 0 0 1 243.187 53.83 A 24.689 24.689 0 0 1 243.75 55.444 A 35.67 35.67 0 0 1 245.067 61.358 A 32.746 32.746 0 0 1 245.142 61.963 A 117.56 117.56 0 0 0 245.32 63.455 Q 245.554 65.298 245.754 66.283 A 12.53 12.53 0 0 0 245.801 66.504 A 67.465 67.465 0 0 1 285.744 49.58 A 89.085 89.085 0 0 1 293.848 49.219 A 156.83 156.83 0 0 1 298.846 49.301 A 178.758 178.758 0 0 1 300.586 49.365 A 9.4 9.4 0 0 1 301.307 49.276 Q 301.674 49.244 302.095 49.23 A 20.629 20.629 0 0 1 302.783 49.219 Q 304.054 49.219 305.324 50.851 A 8.839 8.839 0 0 1 305.42 50.977 Q 307.031 53.027 307.031 55.957 A 19.848 19.848 0 0 1 306.862 58.667 Q 306.437 61.737 304.943 63.128 A 4.178 4.178 0 0 1 302.93 64.16 Q 297.125 60.014 288.191 59.78 Z" id="3" vector-effect="non-scaling-stroke"/>
		<path d="M 389.209 54.053 L 344.678 172.852 A 22.628 22.628 0 0 1 343.276 175.534 Q 341.431 178.512 339.227 179.38 A 5.071 5.071 0 0 1 337.354 179.736 Q 335.518 179.736 334.563 178.27 A 4.31 4.31 0 0 1 334.351 177.905 A 4.446 4.446 0 0 1 333.855 175.823 Q 333.855 175.268 333.975 174.671 A 7.931 7.931 0 0 1 334.277 173.585 A 251.111 251.111 0 0 1 337.644 160.935 Q 340.16 152.335 343.579 142.529 A 13191.225 13191.225 0 0 0 346.046 135.45 Q 349.155 126.518 350.823 121.674 A 1082.008 1082.008 0 0 0 351.709 119.092 Q 346.958 114.34 337.174 100.783 A 559.352 559.352 0 0 1 335.596 98.584 Q 313.037 66.943 313.037 63.867 A 0.325 0.325 0 0 1 313.074 63.721 Q 313.098 63.673 313.138 63.625 A 0.729 0.729 0 0 1 313.184 63.574 L 318.75 58.008 A 117.586 117.586 0 0 1 325.816 65.205 Q 335.555 75.911 348.926 94.336 A 332.715 332.715 0 0 1 351.151 97.43 Q 354.099 101.584 356.115 104.733 A 110.022 110.022 0 0 1 356.396 105.176 Q 358.511 100.946 360.003 97.513 A 91.693 91.693 0 0 0 361.23 94.556 A 1314.004 1314.004 0 0 1 362.068 92.432 Q 363.263 89.41 364.087 87.378 A 372.033 372.033 0 0 1 364.687 85.909 Q 365.357 84.275 366.241 82.155 A 1200.994 1200.994 0 0 1 367.09 80.127 A 414.024 414.024 0 0 1 369.818 73.636 Q 374.268 63.281 380.859 49.219 A 6.777 6.777 0 0 1 383.643 48.633 A 11.12 11.12 0 0 1 385.54 48.783 Q 386.562 48.961 387.36 49.347 A 4.685 4.685 0 0 1 388.916 50.537 Q 389.502 51.27 389.502 52.222 A 5.752 5.752 0 0 1 389.209 54.053 Z" id="4" vector-effect="non-scaling-stroke"/>
		<path d="M 410.596 90.967 L 411.328 103.711 A 37.8 37.8 0 0 1 411.062 108.396 Q 410.445 113.31 408.4 115.856 A 7.05 7.05 0 0 1 405.762 117.92 A 6.521 6.521 0 0 1 404.523 118.243 Q 403.921 118.341 403.235 118.357 A 11.434 11.434 0 0 1 402.979 118.359 Q 401.367 118.359 399.17 117.627 L 399.316 62.842 Q 399.316 50.977 397.925 39.038 Q 396.533 27.1 396.533 15.234 A 6.34 6.34 0 0 1 396.789 13.351 Q 397.433 11.281 399.701 10.739 A 7.821 7.821 0 0 1 401.514 10.547 L 402.686 10.547 A 11.233 11.233 0 0 1 403.099 10.554 Q 403.669 10.575 403.922 10.66 A 0.644 0.644 0 0 1 404.004 10.693 A 93.244 93.244 0 0 1 405.547 18.701 Q 406.142 22.646 406.535 27.114 A 180.15 180.15 0 0 1 406.934 32.666 A 1713.045 1713.045 0 0 0 407.625 44.266 Q 408.833 63.377 409.863 71.045 A 22.398 22.398 0 0 0 411.013 70.381 Q 413.74 68.716 419.911 64.345 A 565.834 565.834 0 0 0 420.996 63.574 A 12761.793 12761.793 0 0 1 425.107 60.649 Q 430.957 56.488 434.912 53.687 A 956.482 956.482 0 0 1 440.039 50.079 A 790.047 790.047 0 0 1 444.873 46.729 Q 455.666 39.677 458.542 39.553 A 2.332 2.332 0 0 1 458.643 39.551 A 3.474 3.474 0 0 1 461.368 40.851 Q 461.888 41.453 462.305 42.334 A 64.934 64.934 0 0 1 456.536 48.611 Q 449.645 55.264 438.721 62.842 A 6699.527 6699.527 0 0 1 425.61 71.851 A 122.686 122.686 0 0 0 416.451 78.758 A 108.214 108.214 0 0 0 413.672 81.152 A 389.008 389.008 0 0 1 427.781 85.22 A 337.018 337.018 0 0 1 432.275 86.646 A 510.204 510.204 0 0 0 445.129 90.642 A 452.184 452.184 0 0 0 449.268 91.846 Q 463.543 96.051 474.81 97.497 A 94.895 94.895 0 0 0 481.787 98.145 A 33.563 33.563 0 0 1 481.752 99.742 Q 481.642 102.042 481.186 103.027 A 2.227 2.227 0 0 1 481.055 103.271 A 4.145 4.145 0 0 1 479.457 104.684 Q 478.014 105.445 475.635 105.615 L 474.463 105.615 Q 465.725 103.18 451.385 100.185 A 728.086 728.086 0 0 0 450.732 100.049 A 1760.009 1760.009 0 0 1 437.678 97.312 Q 418.921 93.298 410.596 90.967 Z" id="5" vector-effect="non-scaling-stroke"/>
		<path d="M 620.801 36.328 A 35.828 35.828 0 0 0 613.049 30.434 A 27.143 27.143 0 0 0 599.707 26.953 A 29.986 29.986 0 0 0 585.057 30.877 A 41.93 41.93 0 0 0 578.613 35.303 A 53.893 53.893 0 0 0 561.045 62.516 A 64.255 64.255 0 0 0 561.035 62.549 A 58.309 58.309 0 0 0 560.108 66.102 Q 559.699 67.918 559.492 69.498 A 23.237 23.237 0 0 0 559.277 72.51 Q 559.277 75.77 559.476 77.835 A 22.866 22.866 0 0 0 559.57 78.662 A 34.15 34.15 0 0 0 560.783 88.026 A 24.644 24.644 0 0 0 569.385 100.928 A 33.132 33.132 0 0 0 582.923 107.096 A 47.44 47.44 0 0 0 592.969 108.105 A 68.214 68.214 0 0 0 620.93 99.34 A 87.72 87.72 0 0 0 630.615 93.018 A 143.462 143.462 0 0 1 641.162 85.693 A 15.433 15.433 0 0 1 644.807 86.142 A 17.47 17.47 0 0 1 645.337 86.279 A 2.618 2.618 0 0 1 647.218 88.018 Q 647.461 88.708 647.461 89.648 A 258.446 258.446 0 0 1 638.841 96.835 Q 629.846 103.986 622.998 107.813 Q 609.462 115.118 597.816 117.065 A 49.792 49.792 0 0 1 589.6 117.773 L 587.695 117.773 Q 571.436 117.773 559.863 107.666 A 35.919 35.919 0 0 1 550.83 96.07 A 34.42 34.42 0 0 1 547.559 81.006 A 62.269 62.269 0 0 1 551.88 58.008 Q 556.201 47.021 563.745 38.599 Q 571.289 30.176 581.616 25.195 A 50.421 50.421 0 0 1 603.809 20.215 Q 613.526 20.215 616.744 22.787 A 5.325 5.325 0 0 1 616.992 22.998 A 8.837 8.837 0 0 1 619.161 26.093 Q 620.801 29.791 620.801 36.328 Z" id="7" vector-effect="non-scaling-stroke"/>
		<path d="M 666.65 116.602 L 655.371 116.602 A 497.772 497.772 0 0 0 655.591 108.545 A 396.471 396.471 0 0 0 655.664 101.074 A 431.379 431.379 0 0 0 655.623 95.31 Q 655.554 90.189 655.371 84.009 A 2430.825 2430.825 0 0 0 655.042 73.663 A 3136.515 3136.515 0 0 0 654.639 62.402 Q 653.906 48.926 653.906 39.624 A 128.757 128.757 0 0 1 654.257 29.91 A 99.783 99.783 0 0 1 655.078 22.559 A 6.24 6.24 0 0 1 656.093 21.121 A 4.308 4.308 0 0 1 659.326 19.775 A 7.522 7.522 0 0 1 661.691 20.13 A 6.054 6.054 0 0 1 664.6 22.192 A 14.293 14.293 0 0 1 665.575 23.582 Q 666.547 25.175 666.65 26.514 L 665.918 50.684 A 231.294 231.294 0 0 0 666 57.065 Q 666.185 63.725 666.782 68.229 A 46.71 46.71 0 0 0 667.236 71.045 A 54.146 54.146 0 0 1 680.64 64.453 A 44.83 44.83 0 0 1 694.482 62.256 A 63.629 63.629 0 0 1 700.388 62.542 A 77.548 77.548 0 0 1 704.15 62.988 A 58.874 58.874 0 0 1 709.728 66.26 Q 715.318 70.001 717.865 74.035 A 15.748 15.748 0 0 1 718.506 75.146 A 22.49 22.49 0 0 1 720.557 82.324 A 85.759 85.759 0 0 1 720.904 86.12 Q 721.045 88.114 721.122 90.329 A 141.414 141.414 0 0 1 721.143 90.967 A 506.217 506.217 0 0 0 721.609 98.767 Q 722.143 106.595 722.805 111.862 A 94.159 94.159 0 0 0 723.34 115.576 Q 722.201 117.727 717.946 118.02 A 20.689 20.689 0 0 1 716.528 118.066 Q 711.035 118.066 711.035 114.111 A 647.894 647.894 0 0 0 710.995 106.604 Q 710.863 95.316 710.303 90.381 Q 709.266 79.21 706.419 76.188 A 3.423 3.423 0 0 0 704.736 75.146 A 150.159 150.159 0 0 0 698.524 74.065 Q 692.313 73.127 687.822 73.097 A 44.162 44.162 0 0 0 687.524 73.096 A 18.082 18.082 0 0 0 682.318 73.813 A 14.438 14.438 0 0 0 676.538 77.124 A 16.74 16.74 0 0 0 673.599 80.863 Q 671.439 84.505 670.036 90.092 A 55.746 55.746 0 0 0 669.946 90.454 A 84.759 84.759 0 0 0 668.649 97.004 Q 667.537 103.893 666.86 113.415 A 313.847 313.847 0 0 0 666.65 116.602 Z" id="8" vector-effect="non-scaling-stroke"/>
		<path d="M 734.18 117.773 L 733.008 117.627 Q 733.008 110.01 732.568 98.145 A 2294.653 2294.653 0 0 1 732.27 89.678 Q 732.047 82.983 731.909 77.49 A 1505.426 1505.426 0 0 0 731.671 68.921 A 1286.166 1286.166 0 0 0 731.396 60.791 A 1722.881 1722.881 0 0 0 731.122 53.745 Q 730.986 50.435 730.849 47.49 A 1007.7 1007.7 0 0 0 730.811 46.655 A 933.489 933.489 0 0 1 730.678 43.744 Q 730.504 39.777 730.447 37.537 A 132.252 132.252 0 0 1 730.444 37.427 A 17.986 17.986 0 0 0 730.337 35.994 Q 729.932 32.227 728.027 22.705 A 303.093 303.093 0 0 1 729.964 20.151 A 270.186 270.186 0 0 1 730.591 19.336 A 4.046 4.046 0 0 1 733.339 17.781 A 6.004 6.004 0 0 1 734.18 17.725 A 2.697 2.697 0 0 1 736.202 19.577 Q 739.883 26.671 742.09 60.938 A 857.952 857.952 0 0 1 743.555 111.035 Q 743.555 116.759 736.789 117.621 A 20.725 20.725 0 0 1 734.18 117.773 Z" id="9" vector-effect="non-scaling-stroke"/>
		<path d="M 821.777 116.748 L 813.135 116.748 Q 812.631 113.349 812.344 110.599 A 97.432 97.432 0 0 1 812.256 109.717 A 411.266 411.266 0 0 0 811.963 106.75 A 327.247 327.247 0 0 0 811.67 104.004 A 137.849 137.849 0 0 0 811.079 99.616 Q 810.553 96.149 809.912 93.311 A 51.859 51.859 0 0 1 798.897 105.912 A 43.777 43.777 0 0 1 780.615 114.697 A 46.036 46.036 0 0 1 776.81 115.328 Q 774.754 115.576 772.925 115.576 Q 769.654 115.576 767.441 115.51 A 96.639 96.639 0 0 1 767.212 115.503 A 24.69 24.69 0 0 1 764.853 115.307 Q 763.652 115.152 762.334 114.88 A 40.438 40.438 0 0 1 762.158 114.844 A 18 18 0 0 1 757.326 113.101 A 16.956 16.956 0 0 1 757.031 112.939 A 12.568 12.568 0 0 1 754.173 110.774 A 8.967 8.967 0 0 1 751.611 104.297 A 23.844 23.844 0 0 1 751.154 101.309 A 32.196 32.196 0 0 1 751.025 98.364 A 19.868 19.868 0 0 1 751.168 96.097 Q 751.483 93.375 752.49 89.648 Q 753.755 84.97 756.821 79.636 A 64.838 64.838 0 0 1 757.837 77.93 A 57.368 57.368 0 0 1 767.285 66.357 A 61.958 61.958 0 0 1 778.943 57.428 A 49.058 49.058 0 0 1 792.334 52.002 A 39.406 39.406 0 0 1 796.068 51.35 A 28.866 28.866 0 0 1 799.585 51.123 A 42.503 42.503 0 0 1 802.693 51.231 A 31.027 31.027 0 0 1 805.518 51.563 A 9.842 9.842 0 0 1 814.157 56.37 Q 815.902 59.021 816.943 63.135 A 52.999 52.999 0 0 1 817.983 68.277 Q 818.824 73.673 819.129 81.088 A 189.893 189.893 0 0 1 819.214 83.569 A 1717.553 1717.553 0 0 0 819.397 89.749 Q 819.586 95.735 819.775 100.124 A 433.459 433.459 0 0 0 819.946 103.784 A 75.873 75.873 0 0 0 820.691 111.283 A 59.311 59.311 0 0 0 821.777 116.748 Z M 804.123 62.486 A 12.029 12.029 0 0 0 800.977 62.109 A 14.484 14.484 0 0 0 798.926 61.963 A 25.866 25.866 0 0 0 788.994 64.068 Q 782.856 66.609 776.367 72.217 A 51.195 51.195 0 0 0 766.846 82.764 A 44.064 44.064 0 0 0 763.787 87.75 Q 762.431 90.364 761.731 92.782 A 17.706 17.706 0 0 0 760.986 97.705 A 10.954 10.954 0 0 0 761.818 102.112 Q 763.769 106.593 770.294 107.844 A 22.859 22.859 0 0 0 770.947 107.959 A 32.099 32.099 0 0 0 786.385 103.472 Q 791.357 100.616 796.143 95.947 A 51.026 51.026 0 0 0 804.639 84.814 A 45.795 45.795 0 0 0 807.111 79.965 Q 808.218 77.4 808.772 75.06 A 19.351 19.351 0 0 0 809.326 70.605 Q 809.326 63.898 804.123 62.486 Z" id="10" vector-effect="non-scaling-stroke"/>
		<path d="M 885.645 94.482 L 885.791 85.547 Q 885.791 68.115 883.887 59.912 Q 884.969 57.883 881.055 57.728 A 17.261 17.261 0 0 0 880.371 57.715 A 26.633 26.633 0 0 0 876.694 57.996 Q 872.733 58.551 867.48 60.205 A 129.592 129.592 0 0 0 862.173 61.995 Q 859.702 62.892 857.612 63.79 A 57.364 57.364 0 0 0 854.59 65.186 Q 843.019 70.756 841.478 76.049 A 6.233 6.233 0 0 0 841.406 76.318 L 841.406 116.162 L 831.592 116.162 A 15.606 15.606 0 0 1 830.897 113.395 Q 829.688 106.51 829.688 88.184 A 849.442 849.442 0 0 1 829.738 78.607 Q 829.885 65.581 830.464 58.362 A 113.874 113.874 0 0 1 830.493 58.008 Q 831.209 49.419 831.636 47.42 A 3.869 3.869 0 0 1 831.738 47.021 A 25.543 25.543 0 0 1 833.658 45.874 Q 835.58 44.847 837.039 44.605 A 5.227 5.227 0 0 1 837.891 44.531 A 2.722 2.722 0 0 1 840.329 46.069 Q 841.553 48.177 841.553 53.174 A 57.066 57.066 0 0 1 841.272 58.902 A 52.213 52.213 0 0 1 841.187 59.692 Q 840.87 62.418 840.827 63.662 A 10.335 10.335 0 0 0 840.82 64.014 Q 858.321 51.158 870.006 47.783 A 27.544 27.544 0 0 1 877.588 46.582 Q 892.287 46.582 894.407 70.152 A 77.179 77.179 0 0 1 894.434 70.459 A 119.069 119.069 0 0 1 894.818 75.037 Q 895.313 82.507 895.313 93.604 L 895.166 105.176 A 259.097 259.097 0 0 0 895.39 116.119 A 233.338 233.338 0 0 0 895.459 117.627 A 10.252 10.252 0 0 1 894.722 118.032 Q 893.761 118.506 893.115 118.506 Q 892.756 118.386 891.713 118.169 A 63.753 63.753 0 0 0 891.211 118.066 A 18.585 18.585 0 0 0 890.1 117.882 Q 888.94 117.723 887.402 117.627 Q 885.938 111.768 885.791 105.688 A 530.77 530.77 0 0 1 885.681 99.847 A 411.06 411.06 0 0 1 885.645 94.482 Z" id="11" vector-effect="non-scaling-stroke"/>
		<path d="M 959.766 106.348 L 959.766 101.514 A 124.935 124.935 0 0 1 949.17 108.667 Q 935.152 117.041 924.609 117.041 A 25.552 25.552 0 0 1 916.65 115.726 A 32.208 32.208 0 0 1 912.964 114.258 Q 908.593 112.207 904.579 107.055 A 46.76 46.76 0 0 1 901.758 102.979 Q 901.025 99.463 901.025 95.801 A 24.341 24.341 0 0 1 901.221 92.838 Q 901.547 90.189 902.417 86.938 Q 903.647 82.343 907.165 77.461 A 45.139 45.139 0 0 1 908.13 76.172 A 46.575 46.575 0 0 1 918.031 66.759 A 52.233 52.233 0 0 1 918.604 66.357 A 51.149 51.149 0 0 1 947.754 57.275 A 40.493 40.493 0 0 1 960.645 59.326 A 63.092 63.092 0 0 1 960.667 57.768 Q 960.736 55.048 961.011 50.098 A 2911.929 2911.929 0 0 1 961.395 43.323 A 3411.31 3411.31 0 0 1 961.816 36.182 A 4262.37 4262.37 0 0 1 962.125 29.589 Q 962.75 16.493 962.988 13.696 Q 963.281 10.254 963.794 7.837 A 16.371 16.371 0 0 1 964.411 5.65 A 12.18 12.18 0 0 1 965.332 3.662 A 7.176 7.176 0 0 1 969.946 0.34 Q 971.298 0 972.949 0 Q 972.949 14.063 972.144 27.466 Q 971.338 40.869 970.679 53.687 A 497.777 497.777 0 0 0 970.112 70.338 A 592.815 592.815 0 0 0 970.02 80.933 Q 970.02 95.361 972.07 111.475 Q 972.07 114.455 971.096 115.945 A 3.613 3.613 0 0 1 970.825 116.309 Q 969.872 117.43 967.93 117.693 A 9.564 9.564 0 0 1 966.65 117.773 A 5.712 5.712 0 0 1 961.185 114.368 Q 959.766 111.536 959.766 106.348 Z M 958.154 90.967 L 958.154 71.484 Q 958.154 66.594 950.556 66.368 A 25.365 25.365 0 0 0 949.805 66.357 Q 948.825 66.217 947.243 66.211 A 37.749 37.749 0 0 0 947.095 66.211 A 11.358 11.358 0 0 0 946.138 66.257 Q 944.531 66.394 941.895 66.943 Q 938.379 67.676 933.984 69.58 A 57.142 57.142 0 0 0 925.873 73.923 A 62.846 62.846 0 0 0 925.342 74.268 A 39.973 39.973 0 0 0 919 79.486 A 28.247 28.247 0 0 0 913.037 88.33 Q 911.719 91.406 911.719 94.629 A 23.622 23.622 0 0 0 912.05 98.78 Q 913.35 106.024 919.752 106.197 A 11.71 11.71 0 0 0 920.068 106.201 Q 921.366 106.201 922.948 105.917 A 22.612 22.612 0 0 0 922.998 105.908 A 26.459 26.459 0 0 0 927.674 105.454 Q 929.918 105.049 932.448 104.284 A 65.618 65.618 0 0 0 937.793 102.393 A 160.248 160.248 0 0 0 944.475 99.593 Q 953.92 95.359 957.3 91.943 A 9.887 9.887 0 0 0 958.154 90.967 Z" id="12" vector-effect="non-scaling-stroke"/>
		<path d="M 1050 116.748 L 1041.357 116.748 Q 1040.854 113.349 1040.567 110.599 A 97.432 97.432 0 0 1 1040.479 109.717 A 411.266 411.266 0 0 0 1040.186 106.75 A 327.247 327.247 0 0 0 1039.893 104.004 A 137.849 137.849 0 0 0 1039.302 99.616 Q 1038.776 96.149 1038.135 93.311 A 51.859 51.859 0 0 1 1027.12 105.912 A 43.777 43.777 0 0 1 1008.838 114.697 A 46.036 46.036 0 0 1 1005.032 115.328 Q 1002.976 115.576 1001.147 115.576 Q 997.877 115.576 995.664 115.51 A 96.639 96.639 0 0 1 995.435 115.503 A 24.69 24.69 0 0 1 993.075 115.307 Q 991.874 115.152 990.557 114.88 A 40.438 40.438 0 0 1 990.381 114.844 A 18 18 0 0 1 985.549 113.101 A 16.956 16.956 0 0 1 985.254 112.939 A 12.568 12.568 0 0 1 982.396 110.774 A 8.967 8.967 0 0 1 979.834 104.297 A 23.844 23.844 0 0 1 979.377 101.309 A 32.196 32.196 0 0 1 979.248 98.364 A 19.868 19.868 0 0 1 979.391 96.097 Q 979.706 93.375 980.713 89.648 Q 981.977 84.97 985.043 79.636 A 64.838 64.838 0 0 1 986.06 77.93 A 57.368 57.368 0 0 1 995.508 66.357 A 61.958 61.958 0 0 1 1007.165 57.428 A 49.058 49.058 0 0 1 1020.557 52.002 A 39.406 39.406 0 0 1 1024.29 51.35 A 28.866 28.866 0 0 1 1027.808 51.123 A 42.503 42.503 0 0 1 1030.916 51.231 A 31.027 31.027 0 0 1 1033.74 51.563 A 9.842 9.842 0 0 1 1042.38 56.37 Q 1044.125 59.021 1045.166 63.135 A 52.999 52.999 0 0 1 1046.206 68.277 Q 1047.047 73.673 1047.351 81.088 A 189.893 189.893 0 0 1 1047.437 83.569 A 1717.553 1717.553 0 0 0 1047.62 89.749 Q 1047.808 95.735 1047.997 100.124 A 433.459 433.459 0 0 0 1048.169 103.784 A 75.873 75.873 0 0 0 1048.913 111.283 A 59.311 59.311 0 0 0 1050 116.748 Z M 1032.345 62.486 A 12.029 12.029 0 0 0 1029.199 62.109 A 14.484 14.484 0 0 0 1027.148 61.963 A 25.866 25.866 0 0 0 1017.217 64.068 Q 1011.079 66.609 1004.59 72.217 A 51.195 51.195 0 0 0 995.068 82.764 A 44.064 44.064 0 0 0 992.01 87.75 Q 990.653 90.364 989.954 92.782 A 17.706 17.706 0 0 0 989.209 97.705 A 10.954 10.954 0 0 0 990.041 102.112 Q 991.991 106.593 998.517 107.844 A 22.859 22.859 0 0 0 999.17 107.959 A 32.099 32.099 0 0 0 1014.607 103.472 Q 1019.579 100.616 1024.365 95.947 A 51.026 51.026 0 0 0 1032.861 84.814 A 45.795 45.795 0 0 0 1035.333 79.965 Q 1036.441 77.4 1036.995 75.06 A 19.351 19.351 0 0 0 1037.549 70.605 Q 1037.549 63.898 1032.345 62.486 Z" id="13" vector-effect="non-scaling-stroke"/>
	</g>
</svg>